<svg xmlns="http://www.w3.org/2000/svg" viewBox="0 0 78.55 80.67"><defs><style>.a{fill:#09f;}</style></defs><title>ctenar</title><path class="a" d="M33.13,50.11h-5.8a1,1,0,0,1-1-1v0a1,1,0,0,1,1-1h4.83a1.93,1.93,0,0,0,1.9-2.25,2,2,0,0,0-2-1.6H22.15a1,1,0,0,1-.86-1.39l3-6a2.79,2.79,0,0,0-.95-3.57l-.84-.56-9.1,10.61A10.23,10.23,0,0,0,11,50v7.77a7.71,7.71,0,0,0,7.71,7.71H29.27a1.93,1.93,0,0,0,1.9-2.25,2,2,0,0,0-2-1.6H27.33a1,1,0,0,1-1-1v0a1,1,0,0,1,1-1h4.83a1.93,1.93,0,0,0,1.9-2.25,2,2,0,0,0-2-1.6H27.33a1,1,0,0,1-1-1v0a1,1,0,0,1,1-1H33a2,2,0,0,0,2-1.6A1.93,1.93,0,0,0,33.13,50.11Z"/><path class="a" d="M67.38,63.82c-7.63-2.32-16.2-1.5-22.36,2.13a1,1,0,0,0,1,1.73,26.7,26.7,0,0,1,20.77-1.94,1,1,0,1,0,.58-1.92Z"/><path class="a" d="M45,36.93a1,1,0,0,0,1,1.73c2.42-1.43,11.08-5.85,20.77-2.91a1,1,0,1,0,.58-1.92C60.31,31.68,51.95,32.84,45,36.93Z"/><path class="a" d="M77.17,32.9h-2v-3a1.29,1.29,0,0,0-.49-1c-3.08-2.43-7.92-3.77-13.65-3.77-.76,0-1.55,0-2.35.08a20.09,20.09,0,1,0-38.86,0l-1.42,0A37.81,37.81,0,0,0,4.16,27.8,1.29,1.29,0,0,0,3.36,29v3.9h-2A1.38,1.38,0,0,0,0,34.28v45a1.38,1.38,0,0,0,1.38,1.38H77.17a1.38,1.38,0,0,0,1.38-1.38v-45A1.38,1.38,0,0,0,77.17,32.9Zm-32-24.62a3.54,3.54,0,1,1-3.54,3.54A3.54,3.54,0,0,1,45.18,8.28Zm-13,0a3.54,3.54,0,1,1-3.54,3.54A3.54,3.54,0,0,1,32.19,8.28Zm6,68.06c-3.72-3.28-10.1-5.18-17.85-5.18a39.49,39.49,0,0,0-14.45,2.5V29.87a35.54,35.54,0,0,1,12.49-2.2c7.93,0,16.3,2.59,19.76,8.06l.05,0ZM28.36,22.76a1.19,1.19,0,0,1,.91-1.94h20a1.19,1.19,0,0,1,.92,1.94,14.15,14.15,0,0,1-21.84,0ZM72.62,32.9V73.95a40.41,40.41,0,0,0-15-2.74c-7.61,0-13.69,1.87-17.31,5.18V35.83s.08-.06.11-.1c3.4-5.09,12.17-8.08,20.68-8.08,4.84,0,8.92,1,11.57,2.85Z"/><path class="a" d="M67.38,39.83A28.53,28.53,0,0,0,45,42.73a1,1,0,1,0,1,1.73c2.37-1.4,10.88-5.72,20.77-2.72a1,1,0,1,0,.58-1.92Z"/><path class="a" d="M67.38,51.82A28.85,28.85,0,0,0,45,54.34a1,1,0,1,0,1,1.73,26.79,26.79,0,0,1,20.77-2.33,1,1,0,1,0,.58-1.92Z"/><path class="a" d="M67.38,45.82A28.48,28.48,0,0,0,45,48.54a1,1,0,1,0,1,1.73,26.66,26.66,0,0,1,20.77-2.52,1,1,0,1,0,.58-1.92Z"/><path class="a" d="M67.38,57.82A28.81,28.81,0,0,0,45,60.14a1,1,0,0,0,1,1.73,26.76,26.76,0,0,1,20.77-2.13,1,1,0,1,0,.58-1.92Z"/></svg>