<svg xmlns="http://www.w3.org/2000/svg" viewBox="0 0 61.5 61.5"><defs><style>.a{fill:#09f;}</style></defs><title>masky</title><path class="a" d="M31.71,37.48a3.84,3.84,0,1,0-3.84-3.84A3.85,3.85,0,0,0,31.71,37.48Z"/><path class="a" d="M47.08,29.8a3.84,3.84,0,1,0,3.85,3.84A3.84,3.84,0,0,0,47.08,29.8Z"/><path class="a" d="M14.42,8.66a3.84,3.84,0,1,0,3.85,3.84A3.84,3.84,0,0,0,14.42,8.66Z"/><path class="a" d="M29.79,8.66a3.84,3.84,0,1,0,3.85,3.84A3.84,3.84,0,0,0,29.79,8.66Z"/><path class="a" d="M48.85,45.87H29.91A1.17,1.17,0,0,0,29,47.8,13.6,13.6,0,0,0,39.4,52.15,13.61,13.61,0,0,0,49.75,47.8,1.17,1.17,0,0,0,48.85,45.87Z"/><path class="a" d="M58.92,19.21H44.2V10.52h0V2.58A2.58,2.58,0,0,0,41.62,0h-39A2.58,2.58,0,0,0,0,2.58V21.14C0,31.8,7,39.9,17.29,41.83h.07c.71,11.48,9.75,19.67,22,19.67,12.61,0,22.1-9.09,22.1-21.14V21.79A2.58,2.58,0,0,0,58.92,19.21ZM17.31,21.79v3.09c-.45.13-.89.3-1.33.46l-.62.24c-.32.13-.63.28-.94.42l-.57.28c-.33.17-.65.36-1,.55l-.46.27c-.46.3-.91.61-1.35,1a1,1,0,0,0-.16,1.35.94.94,0,0,0,.76.37.89.89,0,0,0,.59-.21,16,16,0,0,1,1.42-1l.44-.26q.55-.32,1.13-.6l.28-.15.08,0c.56-.25,1.12-.49,1.71-.69v1.9h0v7.39h0v1.7c-.56-.13-1.1-.29-1.63-.46h-.06l-.7-.26L14.43,37c-.33-.13-.64-.28-1-.43l-.31-.14q-.62-.31-1.21-.65l-.29-.18c-.29-.18-.58-.36-.86-.56l-.4-.3c-.23-.17-.45-.34-.67-.52l-.41-.37c-.2-.18-.4-.35-.59-.54l-.4-.42c-.18-.19-.35-.37-.52-.57l-.37-.46c-.16-.2-.31-.4-.46-.61l-.34-.49q-.21-.32-.41-.64l-.3-.53c-.12-.22-.24-.45-.35-.69s-.18-.37-.26-.55-.2-.49-.3-.73-.15-.38-.21-.57-.17-.52-.24-.79-.12-.39-.17-.58-.13-.57-.18-.86-.08-.38-.11-.57S4,23.54,4,23.2c0-.17,0-.33-.06-.5,0-.51-.06-1-.06-1.56V3.84H40.36V19.21H19.89A2.58,2.58,0,0,0,17.31,21.79Zm40.36,2.55v16c0,10.38-8.17,17.29-18.25,17.29S21.14,50.86,21.14,40.36V23.06H57.66Z"/></svg>