<svg xmlns="http://www.w3.org/2000/svg" viewBox="0 0 65.5 58.47"><defs><style>.a{fill:#09f;}</style></defs><title>oko</title><path class="a" d="M45.44,15.38,57,3.84A2.25,2.25,0,0,0,53.8.66L40.62,13.84l0,0a33.15,33.15,0,0,0-7.83-1C17.48,12.87,0,25.8,0,31.08,0,34,5.45,39.36,12.91,43.49L1.77,54.63A2.25,2.25,0,1,0,5,57.81L17.16,45.61a39.51,39.51,0,0,0,15.59,3.69C48,49.29,65.5,36.37,65.5,31.08,65.5,27.25,56.31,19.41,45.44,15.38ZM32.74,37.6a12.24,12.24,0,0,1-6-1.57l4.41-4.41A6.57,6.57,0,1,0,27.38,29l-4.12,4.12a12.27,12.27,0,0,1-1.39-13.68,32.46,32.46,0,0,1,10.88-2.17,32.14,32.14,0,0,1,10.87,2.16A12.33,12.33,0,0,1,32.74,37.6ZM16.36,21.86a16.69,16.69,0,0,0,3.79,14.39l-4,4C9.6,36.89,4.78,32.65,4.78,31.08,4.78,29.82,9.14,25.53,16.36,21.86Zm7.17,17.37a16.73,16.73,0,0,0,26-14,16.46,16.46,0,0,0-.36-3.42c7.22,3.67,11.58,8,11.58,9.23,0,2.76-15,13.78-28,13.79a33.89,33.89,0,0,1-12.23-2.63Z"/></svg>