<svg xmlns="http://www.w3.org/2000/svg" viewBox="0 0 72.49 62.88"><defs><style>.a{fill:#09f;}</style></defs><title>ruce</title><path class="a" d="M71.2,22.63A7.81,7.81,0,0,0,67.13,24a14.21,14.21,0,0,0-4.34,4.81,2.65,2.65,0,0,1-2.2,1.38c-.87,0-.65-.41-.7-2.21V8.7a2.61,2.61,0,0,0-5.22,0V22.19a1.31,1.31,0,1,1-2.61,0V2.61a2.61,2.61,0,0,0-5.22,0V22.19a1.31,1.31,0,1,1-2.61,0V6.53a2.18,2.18,0,0,0-4.35,0V23.93a1.3,1.3,0,0,1-2.61,0V13.06a2.18,2.18,0,0,0-2.18-2.18h0a2.18,2.18,0,0,0-2.18,2.18V25.17c1.32.81,3.73,2.34,7.58,4.79l3.59,2.27a18.22,18.22,0,0,1,8.87,16c0,.17,0,.34,0,.5a14.26,14.26,0,0,0,7.81-6.36c1-1.63,7.13-11.16,7.66-12.16A11.59,11.59,0,0,1,71,26.76a5.87,5.87,0,0,0,1.38-1.83C72.51,24.75,72.78,22.62,71.2,22.63Z"/><path class="a" d="M8.7,41.12H22.19a1.3,1.3,0,1,1,0,2.61H2.61a2.61,2.61,0,0,0,0,5.22H22.19a1.31,1.31,0,1,1,0,2.61H6.53a2.18,2.18,0,0,0,0,4.35H23.93a1.3,1.3,0,1,1,0,2.61H13.06a2.18,2.18,0,0,0-2.18,2.18h0a2.18,2.18,0,0,0,2.18,2.18H36.67c10.51-.73,13-6.49,13-14.63A15,15,0,0,0,42.4,35c-1.63-1-11.16-7.13-12.16-7.66a11.59,11.59,0,0,1-3.48-2.64,5.87,5.87,0,0,0-1.83-1.38c-.17-.09-2.3-.37-2.29,1.21A7.81,7.81,0,0,0,24,28.65,14.21,14.21,0,0,0,28.79,33a2.65,2.65,0,0,1,1.38,2.2c0,.87-.41.65-2.21.7H8.7a2.61,2.61,0,0,0,0,5.22Zm0,0"/></svg>