<svg xmlns="http://www.w3.org/2000/svg" viewBox="0 0 42.85 63.98"><defs><style>.a{fill:#09f;}</style></defs><title>starik</title><circle class="a" cx="11.44" cy="7.52" r="7.52"/><path class="a" d="M42.83,34.23a4.25,4.25,0,0,0,0-1c-.11-1.22-1.73-5-6.19-10.42s-7.12-6.63-9.74-8.44c-1.83-1.26-5.75-2.43-8.05-.28a5.69,5.69,0,0,0-1.19,1.58,2.83,2.83,0,0,0-.55.8l-4.9,10.72H2.85a2.85,2.85,0,0,0,0,5.7H14a2.85,2.85,0,0,0,2.59-1.66L20,23.78A65.9,65.9,0,0,1,32.42,37.06l-3.09,7a6.88,6.88,0,0,0-1.17,4.22c.17,1.48.73,12.73.73,12.73.25,1.83,2.26,3,4.08,3a4.27,4.27,0,0,0,1.26-.19c2.26-.7,3.13-2.58,2.82-5.35L36.8,48l5-10.9A5.68,5.68,0,0,0,42.83,34.23Z"/><path class="a" d="M7.92,35.78a1.85,1.85,0,0,0-1.85,1.85V62.12a1.85,1.85,0,1,0,3.71,0V37.64A1.85,1.85,0,0,0,7.92,35.78Z"/></svg>