<svg xmlns="http://www.w3.org/2000/svg" viewBox="0 0 58.1 63.81"><defs><style>.a{fill:#09f;}</style></defs><title>ucho</title><path class="a" d="M21.13,27.2a6.85,6.85,0,0,1,13.7,0,2.28,2.28,0,1,0,4.57,0,11.42,11.42,0,1,0-22.84,0,2.28,2.28,0,1,0,4.57,0Z"/><path class="a" d="M57.37.73a2.5,2.5,0,0,0-3.54,0L42.19,12.37A20.38,20.38,0,0,0,28,6.65h-.33A20.63,20.63,0,0,0,7.43,26.74a2.28,2.28,0,0,0,2.23,2.33h0A2.28,2.28,0,0,0,12,26.84,16.12,16.12,0,0,1,27.74,11.21H28A16,16,0,0,1,37.59,40a6.92,6.92,0,0,0-2.76,5.49v6.93A6.85,6.85,0,0,1,28,59.24h-.27a2.28,2.28,0,0,0-.06,4.57H28A11.42,11.42,0,0,0,39.39,52.39V45.46a2.3,2.3,0,0,1,.94-1.85,20.52,20.52,0,0,0,5-27.35l12-12A2.5,2.5,0,0,0,57.37.73Z"/><path class="a" d="M28.78,29.32a2.5,2.5,0,0,0-3.54,0L.73,53.83a2.5,2.5,0,1,0,3.54,3.54L28.78,32.85A2.5,2.5,0,0,0,28.78,29.32Z"/></svg>