<svg xmlns="http://www.w3.org/2000/svg" viewBox="0 0 53.81 60.74"><defs><style>.a{fill:#09f;}</style></defs><title>vozik</title><path class="a" d="M35.23,45a15.45,15.45,0,1,1-20.59-19v-5.4a20.54,20.54,0,1,0,25.07,27L37.89,45Z"/><circle class="a" cx="24.18" cy="6.24" r="6.24"/><path class="a" d="M53.19,50.75,43.34,37.37a3.18,3.18,0,0,0-2.56-1.3H31.15c0-.22,0-6.19,0-6.19H41.49a2.55,2.55,0,0,0,0-5.09H31.18V21.93a7,7,0,1,0-14,0V35.42a7,7,0,0,0,6.09,6.94,3.19,3.19,0,0,0,.72.08H39.17l8.9,12.08a3.18,3.18,0,1,0,5.13-3.78Z"/></svg>